<!--
  ~ App Android
  ~ Copyright (C) 2020 Banco Caminos
  ~ All Rights Reserved, unauthorized copying of this file, via any medium is strictly prohibited.
  ~ Proprietary and confidential.
  ~ Written by Banco Caminos <https://www.bancocaminos.es>, 2020
  -->
<svg xmlns:xlink="http://www.w3.org/1999/xlink" height="40" width="40" xmlns="http://www.w3.org/2000/svg"><defs><path d="M19.682.798c-1.28 0-2.352.995-2.352 2.254 0 .597.242 1.16.692 1.592l-2.871 5.668a2.45 2.45 0 00-.519-.066c-.588 0-1.176.199-1.626.597L9.996 9.35c.035-.133.035-.265.035-.431 0-1.227-1.037-2.254-2.352-2.254-1.314 0-2.352.994-2.352 2.254 0 .43.138.829.346 1.16L2.94 14.39c-.207-.034-.38-.1-.588-.1-1.28 0-2.352.995-2.352 2.254 0 1.227 1.038 2.254 2.352 2.254 1.315 0 2.352-.994 2.352-2.254 0-.497-.173-.994-.484-1.359l2.664-4.177c.242.1.519.133.83.133.588 0 1.141-.199 1.556-.564l3.044 1.525c-.034.1-.034.265-.034.398 0 1.227 1.038 2.254 2.352 2.254 1.28 0 2.352-.994 2.352-2.254 0-.53-.207-1.028-.553-1.425l2.94-5.768h.277c1.28 0 2.352-.995 2.352-2.255A2.3 2.3 0 0019.682.798zM15.462 12.5c0 .43-.38.829-.865.829-.45 0-.864-.365-.864-.829 0-.464.38-.829.864-.829.485 0 .865.365.865.829zm4.22-8.619c-.45 0-.864-.364-.864-.829 0-.43.38-.828.864-.828.45 0 .865.364.865.828-.034.431-.415.83-.865.83zM3.217 16.577c0 .431-.38.83-.865.83-.484 0-.865-.366-.865-.83 0-.43.38-.828.865-.828.484 0 .865.397.865.828zM8.544 8.92c0 .43-.38.829-.865.829-.45 0-.865-.365-.865-.83 0-.43.381-.828.865-.828.485.033.865.398.865.829z" id="a"/></defs><g transform="translate(9 10.202)" fill-rule="evenodd"><mask fill="#fff" id="b"><use xlink:href="#a"/></mask><use fill="#FFDD9D" xlink:href="#a"/><g fill="#D9AB6E" mask="url(#b)"><path d="M-70-46H97V71H-70z"/></g></g></svg>