<!--
  ~ App Android
  ~ Copyright (C) 2020 Banco Caminos
  ~ All Rights Reserved, unauthorized copying of this file, via any medium is strictly prohibited.
  ~ Proprietary and confidential.
  ~ Written by Banco Caminos <https://www.bancocaminos.es>, 2020
  -->
<svg height="32" width="32" xmlns="http://www.w3.org/2000/svg"><defs><filter filterUnits="objectBoundingBox" height="154.5%" id="a" width="154.5%" x="-27.3%" y="-27.3%"><feGaussianBlur in="SourceGraphic" stdDeviation="2"/></filter></defs><g fill="#FFDD9D" fill-rule="evenodd"><path d="M14.697 16.843v.584c0 .203-.137.356-.32.356h-.798c-.183 0-.32-.153-.32-.356v-.584c0-.203.137-.356.32-.356h.799c.182.026.32.178.32.356zm1.004-5.437c-.388-.38-.913-.558-1.574-.558-.617 0-1.119.152-1.507.482-.342.28-.525.712-.547 1.245 0 .127.09.229.205.229l.913.025a.348.348 0 00.32-.254.627.627 0 01.16-.305.655.655 0 01.478-.203.7.7 0 01.548.229c.137.152.183.355.183.635 0 .254-.046.482-.16.66a1.669 1.669 0 01-.434.483c-.365.28-.616.533-.753.762-.114.178-.182.406-.205.711-.023.153.091.254.228.254h.981c.114 0 .206-.101.229-.228.022-.153.045-.28.09-.407.07-.152.183-.305.366-.432.32-.177.593-.457.799-.762.205-.33.32-.686.32-1.067-.07-.61-.252-1.117-.64-1.499zM.753 12.956a1.01 1.01 0 00-.365 1.016c.068.381.365.686.73.737.251.05.502.05.753.05.753 0 1.438-.177 2.031-.482.388.229.8.407 1.233.559v-.305c0-.432.023-.838.091-1.245a7.33 7.33 0 01-.981-.508l-.365-.228-.343.228c-.342.229-.73.381-1.164.458a3.89 3.89 0 00.48-.991l.137-.432-.274-.33a5.883 5.883 0 01-1.392-3.81c0-3.38 2.875-6.149 6.39-6.149 2.693 0 4.998 1.6 5.933 3.862.229-.026.457-.026.685-.026.251 0 .502.026.776.026A7.73 7.73 0 007.737 0C3.469 0 0 3.43 0 7.647c0 1.6.502 3.15 1.46 4.445-.182.356-.41.66-.707.864zM22 14.303c0 1.625-.525 3.2-1.483 4.521.182.356.41.661.707.864.297.229.456.635.365 1.016-.068.407-.365.686-.73.737-.251.05-.502.05-.753.05a4.444 4.444 0 01-2.077-.507A7.953 7.953 0 0114.149 22c-4.313 0-7.827-3.48-7.827-7.723 0-4.242 3.537-7.697 7.85-7.697S22 10.035 22 14.303zm-1.346 0c0-3.43-2.899-6.224-6.482-6.224s-6.481 2.794-6.481 6.224 2.898 6.224 6.481 6.224a6.737 6.737 0 003.56-1.017l.343-.228.342.228c.365.229.753.381 1.187.458a4.056 4.056 0 01-.48-1.016l-.136-.432.273-.33a6.085 6.085 0 001.393-3.887z" filter="url(#a)" opacity=".507" transform="translate(5 5)"/><path d="M19.697 21.843v.584c0 .203-.137.356-.32.356h-.798c-.183 0-.32-.153-.32-.356v-.584c0-.203.137-.356.32-.356h.799c.182.026.32.178.32.356zm1.004-5.437c-.388-.38-.913-.558-1.574-.558-.617 0-1.119.152-1.507.482-.342.28-.525.712-.547 1.245 0 .127.09.229.205.229l.913.025a.348.348 0 00.32-.254.627.627 0 01.16-.305.655.655 0 01.478-.203.7.7 0 01.548.229c.137.152.183.355.183.635 0 .254-.046.482-.16.66a1.669 1.669 0 01-.434.483c-.365.28-.616.533-.753.762-.114.178-.182.406-.205.711-.023.153.091.254.228.254h.981c.114 0 .206-.101.229-.228.022-.153.045-.28.09-.407.07-.152.183-.305.366-.432.32-.177.593-.457.799-.762.205-.33.32-.686.32-1.067-.07-.61-.252-1.117-.64-1.499zm-14.948 1.55a1.01 1.01 0 00-.365 1.016c.068.381.365.686.73.737.251.05.502.05.753.05.753 0 1.438-.177 2.031-.482.388.229.8.407 1.233.559v-.305c0-.432.023-.838.091-1.245a7.33 7.33 0 01-.981-.508l-.365-.228-.343.228c-.342.229-.73.381-1.164.458a3.89 3.89 0 00.48-.991l.137-.432-.274-.33a5.883 5.883 0 01-1.392-3.81c0-3.38 2.875-6.149 6.39-6.149 2.693 0 4.998 1.6 5.933 3.862.229-.026.457-.026.685-.026.251 0 .502.026.776.026A7.73 7.73 0 0012.737 5C8.469 5 5 8.43 5 12.647c0 1.6.502 3.15 1.46 4.445-.182.356-.41.66-.707.864zM27 19.303c0 1.625-.525 3.2-1.483 4.521.182.356.41.661.707.864.297.229.456.635.365 1.016-.068.407-.365.686-.73.737-.251.05-.502.05-.753.05a4.444 4.444 0 01-2.077-.507A7.953 7.953 0 0119.149 27c-4.313 0-7.827-3.48-7.827-7.723 0-4.242 3.537-7.697 7.85-7.697S27 15.035 27 19.303zm-1.346 0c0-3.43-2.899-6.224-6.482-6.224s-6.481 2.794-6.481 6.224 2.898 6.224 6.481 6.224a6.737 6.737 0 003.56-1.017l.343-.228.342.228c.365.229.753.381 1.187.458a4.056 4.056 0 01-.48-1.016l-.136-.432.273-.33a6.085 6.085 0 001.393-3.887z"/></g></svg>